#N canvas 603 49 726 633 10;
#X declare -lib mrpeach;
#X obj 17 29 nc_osc_receive;
#X obj 18 72 osc_route_params;
#X text 25 50 global values;
#X obj 125 29 osc_route_matches;
#X text 247 29 /count /words /chars /notes /key;
#X obj 128 72 osc_route_params;
#X obj 238 72 osc_route_params;
#X obj 346 72 osc_route_params;
#X text 136 54 0/;
#X text 239 54 1/;
#X text 348 55 2/;
#X text 457 55 3/;
#X obj 16 8 tgl 15 0 empty empty empty 17 7 0 10 -262144 -1 -1 1 1
;
#X text 35 5 enable/disable osc debug output;
#X obj 456 72 osc_route_params;
#X obj 566 72 osc_route_params;
#X text 566 56 4/;
#X obj 679 72 adc~;
#X text 640 50 audio input;
#X obj 468 482 mix5++;
#X obj 471 610 dac~;
#X obj 128 111 s start;
#X obj 237 109 s wordnotes;
#X obj 238 149 r wordnotes;
#X obj 238 179 nc_basic_chorus~;
#X connect 0 0 1 0;
#X connect 0 0 3 0;
#X connect 3 0 5 0;
#X connect 3 1 6 0;
#X connect 3 2 7 0;
#X connect 3 3 14 0;
#X connect 3 4 15 0;
#X connect 5 0 21 0;
#X connect 6 3 22 0;
#X connect 12 0 0 0;
#X connect 19 0 20 0;
#X connect 19 1 20 1;
#X connect 23 0 24 0;
#X connect 24 0 19 0;
