#N canvas 312 157 1237 726 10;
#X declare -lib mrpeach;
#X declare -lib vasp;
#X obj 17 29 nc_osc_receive;
#X obj 18 72 osc_route_params;
#X text 25 50 global values;
#X obj 125 29 osc_route_matches;
#X text 247 29 /count /words /chars /notes /key;
#X obj 128 72 osc_route_params;
#X obj 238 72 osc_route_params;
#X obj 346 72 osc_route_params;
#X text 136 54 0/;
#X text 239 54 1/;
#X text 348 55 2/;
#X text 457 55 3/;
#X obj 16 8 tgl 15 0 empty empty empty 17 7 0 10 -262144 -1 -1 0 1
;
#X text 35 5 enable/disable osc debug output;
#X obj 456 72 osc_route_params;
#X obj 566 72 osc_route_params;
#X text 566 56 4/;
#X obj 679 72 adc~;
#X text 662 47 audio input;
#X obj 255 145 delay_fbf~;
#X obj 164 116 unpack f;
#X obj 341 116 print;
#X msg 257 116 delpitch \$1;
#X obj 221 116 - 12;
#X obj 695 120 samplebox_1~;
#X obj 271 345 samplay~;
#X obj 196 314 unpack f;
#X obj 782 470 mix5++;
#X obj 544 665 dac~;
#X obj 35 314 *~;
#X msg 50 287 20;
#X obj 192 555 trisaw~;
#X msg 145 511 pitch \$1;
#X msg 79 492 bias \$1;
#X obj 9 213 instrument-1-chorus~;
#X msg 96 181 s 0;
#X obj 96 157 t b;
#X msg 131 181 a \$1;
#X obj 162 234 expr;
#X obj 127 157 expr $f1 * 15 + 10;
#X obj 1051 72 random;
#X obj 66 630 osc~ 440;
#X obj 166 657 sqsaw~;
#X connect 0 0 1 0;
#X connect 0 0 3 0;
#X connect 1 2 33 0;
#X connect 3 0 5 0;
#X connect 3 1 6 0;
#X connect 3 2 7 0;
#X connect 3 3 14 0;
#X connect 3 4 15 0;
#X connect 5 3 20 0;
#X connect 6 2 39 0;
#X connect 6 3 26 0;
#X connect 6 3 34 0;
#X connect 7 0 36 0;
#X connect 12 0 0 0;
#X connect 17 0 19 0;
#X connect 17 1 19 2;
#X connect 19 0 27 1;
#X connect 20 0 23 0;
#X connect 22 0 21 0;
#X connect 22 0 19 1;
#X connect 23 0 22 0;
#X connect 24 0 27 2;
#X connect 25 0 27 3;
#X connect 26 0 25 0;
#X connect 26 0 32 0;
#X connect 27 0 28 0;
#X connect 27 1 28 1;
#X connect 29 0 31 1;
#X connect 30 0 29 1;
#X connect 32 0 31 0;
#X connect 33 0 31 0;
#X connect 34 0 29 0;
#X connect 34 0 27 0;
#X connect 35 0 34 2;
#X connect 36 0 35 0;
#X connect 37 0 34 2;
#X connect 39 0 37 0;
