#N canvas 960 22 960 1032 10;
#X declare -lib mrpeach;
#X declare -lib mrpeach;
#X obj 3 94 adc~;
#X obj 436 899 dac~;
#X obj 103 201 nc_simple_delay~;
#X obj 107 530 nc_freeverb_gui~;
#X obj 102 -114 import mrpeach;
#X obj 443 852 nc_limiter~;
#X obj 910 521 vsl 15 128 0 1 0 0 empty empty empty 0 -9 0 10 -262144
-1 -1 0 1;
#X obj 827 378 t b;
#X msg 868 437 0.5;
#X obj 540 656 *~;
#X obj 293 437 nc_mono_synth~;
#X obj 536 272 unpack f f f f f f;
#X msg 908 437 0.1;
#X obj 575 437 nc_mono_synth~;
#X obj 387 437 nc_mono_synth~;
#X obj 481 437 nc_mono_synth~;
#X obj 764 437 nc_mono_synth~;
#X obj 670 437 nc_mono_synth~;
#X obj 199 14 t b;
#X msg 158 55 1000;
#X msg 211 55 0.75;
#X obj 810 -106 nc_osc_receive;
#X obj 757 149 map;
#X obj 756 -55 osc_route_matches;
#X obj 679 6 osc_route_params;
#X obj 585 -89 osc_route_params;
#X obj 795 6 osc_route_params;
#X obj 907 6 osc_route_params;
#X obj 758 99 print;
#X obj 637 740 r key;
#X obj 848 80 s key;
#X obj 597 753 bng 15 250 50 0 empty empty empty 17 7 0 10 -262144
-1 -1;
#X obj 637 774 play_sound test.wav 96000;
#X obj 671 693 symbol test.wav;
#X obj 784 693 float 96000;
#X obj 671 662 bng 15 250 50 0 empty empty empty 17 7 0 10 -262144
-1 -1;
#X connect 0 0 2 1;
#X connect 0 0 3 0;
#X connect 2 0 3 0;
#X connect 3 0 5 0;
#X connect 5 0 1 0;
#X connect 5 0 1 1;
#X connect 6 0 9 1;
#X connect 7 0 8 0;
#X connect 9 0 5 0;
#X connect 10 0 9 0;
#X connect 11 0 10 0;
#X connect 11 1 14 0;
#X connect 11 2 15 0;
#X connect 11 3 13 0;
#X connect 11 4 17 0;
#X connect 11 5 16 0;
#X connect 12 0 6 0;
#X connect 13 0 9 0;
#X connect 14 0 9 0;
#X connect 15 0 9 0;
#X connect 16 0 9 0;
#X connect 17 0 9 0;
#X connect 18 0 19 0;
#X connect 18 0 20 0;
#X connect 19 0 2 0;
#X connect 20 0 2 2;
#X connect 21 0 23 0;
#X connect 21 0 25 0;
#X connect 23 0 24 0;
#X connect 23 1 26 0;
#X connect 23 2 27 0;
#X connect 24 3 11 0;
#X connect 24 3 28 0;
#X connect 26 0 30 0;
#X connect 29 0 32 0;
#X connect 31 0 32 0;
#X connect 32 0 5 0;
#X connect 32 1 5 0;
#X connect 33 0 32 1;
#X connect 34 0 32 2;
#X connect 35 0 33 0;
#X connect 35 0 34 0;
