#N canvas 0 22 1093 1002 10;
#X declare -lib mrpeach;
#X declare -lib mrpeach;
#X obj 104 -85 adc~;
#X obj 388 735 dac~;
#X obj 138 23 nc_simple_delay~;
#X obj 137 291 nc_freeverb_gui~;
#X obj 102 -114 import mrpeach;
#X obj 140 625 nc_limiter~;
#X obj 541 -111 osc_routes;
#X obj 783 236 vsl 15 128 0 1 0 0 empty empty empty 0 -9 0 10 -262144
-1 -1 6350 1;
#X msg 781 175 0;
#X obj 700 115 t b;
#X msg 741 174 0.5;
#X obj 413 393 *~;
#X obj 509 62 unpack f f f f;
#X obj 339 154 nc_mono_synth~;
#X obj 317 -49 expr $f1 \; if ($f1 == $f2 \, $f2 \, $f1);
#X floatatom 317 6 5 0 0 0 - - -;
#X floatatom 458 6 5 0 0 0 - - -;
#X floatatom 496 -42 5 0 0 0 - - -;
#X obj 621 154 nc_mono_synth~;
#X obj 433 154 nc_mono_synth~;
#X obj 527 154 nc_mono_synth~;
#X obj 667 -42 map 0 50 0 1;
#X connect 2 0 3 0;
#X connect 3 0 5 0;
#X connect 5 0 1 0;
#X connect 5 0 1 1;
#X connect 6 3 14 0;
#X connect 6 6 9 0;
#X connect 6 6 12 0;
#X connect 6 7 8 0;
#X connect 7 0 11 1;
#X connect 8 0 7 0;
#X connect 9 0 10 0;
#X connect 10 0 7 0;
#X connect 11 0 1 0;
#X connect 11 0 1 1;
#X connect 12 0 13 0;
#X connect 12 1 19 0;
#X connect 12 2 20 0;
#X connect 12 3 18 0;
#X connect 13 0 11 0;
#X connect 14 0 15 0;
#X connect 14 1 16 0;
#X connect 14 1 17 0;
#X connect 17 0 14 1;
#X connect 18 0 11 0;
#X connect 19 0 11 0;
#X connect 20 0 11 0;
