#N canvas 840 22 840 1002 10;
#X declare -lib mrpeach;
#X declare -lib mrpeach;
#X obj 104 -85 adc~;
#X obj 149 731 dac~;
#X obj 272 17 nc_simple_delay~;
#X obj 271 285 nc_freeverb_gui~;
#X obj 393 -81 nc_osc_receive;
#X obj -144 -82 import mrpeach;
#X obj 569 -22 print;
#X obj 274 619 nc_limiter~;
#X obj 393 -52 routeOSC /0;
#X obj 505 -52 routeOSC /1;
#X obj 394 -18 print;
#X obj 505 -16 / 50;
#X connect 0 0 2 1;
#X connect 0 0 3 0;
#X connect 2 0 3 0;
#X connect 3 0 7 0;
#X connect 4 0 8 0;
#X connect 4 0 9 0;
#X connect 7 0 1 0;
#X connect 7 0 1 1;
#X connect 8 0 2 0;
#X connect 8 0 10 0;
#X connect 9 0 6 0;
#X connect 9 0 11 0;
#X connect 11 0 2 2;
