#N canvas -1680 575 1680 1002 10;
#X declare -lib mrpeach;
#X declare -lib vasp;
#X obj 17 29 nc_osc_receive;
#X obj 17 72 osc_route_params;
#X text 25 50 global values;
#X obj 125 29 osc_route_matches;
#X text 247 29 /count /words /chars /notes /key;
#X obj 125 72 osc_route_params;
#X obj 238 72 osc_route_params;
#X obj 346 72 osc_route_params;
#X text 136 54 0/;
#X text 239 54 1/;
#X text 348 55 2/;
#X text 457 55 3/;
#X obj 16 8 tgl 15 0 empty empty empty 17 7 0 10 -262144 -1 -1 0 1
;
#X text 35 5 enable/disable osc debug output;
#X obj 456 72 osc_route_params;
#X obj 566 72 osc_route_params;
#X text 566 56 4/;
#X obj 679 72 adc~;
#X text 678 39 audio input;
#X obj 194 269 nc_basic_chorus~;
#X obj 287 221 vsl 10 40 0 1 0 0 empty empty empty 0 -9 0 10 -262144
-1 -1 1950 1;
#X msg 287 188 0.5;
#X obj 287 162 loadbang;
#X obj 195 606 freeverber~;
#X obj 319 800 mix5++;
#X obj 339 1083 dac~;
#X obj 578 233 samplay~;
#X obj 557 218 bng 15 250 50 0 empty empty empty 17 7 0 10 -262144
-1 -1;
#N canvas 746 303 623 412 samples 0;
#X obj -385 39 samplebox_1~;
#X obj 114 314 print;
#X obj -385 -18 loadbang;
#X msg -385 9 loadbank sounds/inabsensesamples;
#X obj -338 340 dac~;
#X connect 0 0 4 0;
#X connect 0 1 1 0;
#X connect 2 0 3 0;
#X connect 3 0 0 0;
#X restore 805 75 pd samples;
#X obj 578 155 once;
#X obj 578 192 t b;
#X obj 460 490 delay_fbf~;
#X obj 385 233 samplay~;
#X obj 362 218 bng 15 250 50 0 empty empty empty 17 7 0 10 -262144
-1 -1;
#X obj 385 155 once;
#X obj 385 192 t b;
#X obj 753 230 samplay~;
#X obj 732 215 bng 15 250 50 0 empty empty empty 17 7 0 10 -262144
-1 -1;
#X obj 753 152 once;
#X obj 753 189 t b;
#X obj 856 377 print;
#X msg 841 188 sample 3;
#X msg 641 188 sample 1;
#X msg 475 188 sample 2;
#X obj 431 931 freeverber~;
#X obj 214 547 loadbang;
#X obj 569 852 loadbang;
#X obj 616 934 delay_fbf~;
#X obj 615 1121 spigot~;
#X obj 125 156 s end;
#X obj 125 131 once;
#X obj 653 1101 r end;
#X obj -3 205 s reset;
#X obj -4 184 bng 15 250 50 0 empty empty empty 17 7 0 10 -262144 -1
-1;
#X obj 406 106 r reset;
#X obj 775 119 r reset;
#X obj 600 123 r reset;
#X obj 697 1101 r reset;
#X msg 697 1125 0;
#X obj 883 1090 vu~;
#X obj 146 107 r reset;
#X obj 189 146 bng 15 250 50 0 empty empty empty 17 7 0 10 -262144
-1 -1;
#X obj 866 875 loadbang;
#X msg 866 895 delcoarse 1109 \, fb 75;
#X obj 667 423 loadbang;
#X msg 667 443 delcoarse 923 \, fb 75;
#X obj 497 739 loadbang;
#X obj 987 173 bng 15 250 50 0 empty empty empty 17 7 0 10 -262144
-1 -1;
#X text 951 155 load samples;
#X msg 214 574 on 1 \, roomsize 1 \, wide 1 \, balance 1;
#X msg 568 880 on 1 \, roomsize 1 \, wide 1 \, balance 1;
#X msg 497 763 v1 90 \, v2 90 \, v3 75 \, a1a1 1 \, a2a1 1 \, a2a2
1 \, a3a1 1 \, a3a2 1 \, limit 1 \, send1 80;
#X connect 0 0 1 0;
#X connect 0 0 3 0;
#X connect 3 0 5 0;
#X connect 3 1 6 0;
#X connect 3 2 7 0;
#X connect 3 3 14 0;
#X connect 3 4 15 0;
#X connect 5 0 50 0;
#X connect 6 3 19 0;
#X connect 7 0 34 0;
#X connect 12 0 0 0;
#X connect 14 0 29 0;
#X connect 15 0 38 0;
#X connect 17 0 24 1;
#X connect 19 0 23 0;
#X connect 20 0 19 1;
#X connect 21 0 20 0;
#X connect 22 0 21 0;
#X connect 23 0 24 0;
#X connect 24 0 25 0;
#X connect 24 1 25 1;
#X connect 24 2 44 0;
#X connect 24 3 47 0;
#X connect 26 0 31 0;
#X connect 27 0 26 0;
#X connect 29 0 30 0;
#X connect 30 0 26 0;
#X connect 31 0 24 2;
#X connect 32 0 31 0;
#X connect 33 0 32 0;
#X connect 34 0 35 0;
#X connect 35 0 32 0;
#X connect 36 0 31 0;
#X connect 36 1 40 0;
#X connect 37 0 36 0;
#X connect 38 0 39 0;
#X connect 39 0 36 0;
#X connect 41 0 36 1;
#X connect 42 0 26 1;
#X connect 43 0 32 1;
#X connect 44 0 25 0;
#X connect 44 1 25 1;
#X connect 45 0 69 0;
#X connect 46 0 70 0;
#X connect 47 0 48 0;
#X connect 48 1 25 0;
#X connect 48 1 25 1;
#X connect 48 1 59 0;
#X connect 50 0 49 0;
#X connect 51 0 48 1;
#X connect 53 0 52 0;
#X connect 54 0 34 1;
#X connect 55 0 38 1;
#X connect 56 0 29 1;
#X connect 57 0 58 0;
#X connect 58 0 48 1;
#X connect 60 0 50 1;
#X connect 61 0 50 1;
#X connect 62 0 63 0;
#X connect 63 0 47 1;
#X connect 64 0 65 0;
#X connect 65 0 31 1;
#X connect 66 0 71 0;
#X connect 67 0 41 0;
#X connect 67 0 42 0;
#X connect 67 0 43 0;
#X connect 69 0 23 2;
#X connect 70 0 44 2;
#X connect 71 0 24 5;
