#N canvas 683 160 726 633 10;
#X obj 151 272 trisaw~;
#X msg 151 194 pitch \$1;
#X obj 107 196 print;
#X obj 68 519 miniscope~;
#X obj 246 142 adsr_mod~;
#X obj 149 140 t f b;
#X obj 250 417 *~;
#X obj 246 367 clip~ -1 1;
#X msg 244 108 1;
#X obj 144 10 inlet;
#X obj 203 9 inlet;
#X obj 256 10 inlet;
#X obj 320 577 outlet~;
#X obj 468 262 print eadsr;
#X obj 382 60 loadbang;
#X msg 386 104 all 40 300 0 700 0 1 0 0 0;
#X connect 0 0 3 0;
#X connect 0 0 6 1;
#X connect 1 0 0 0;
#X connect 1 0 2 0;
#X connect 4 0 7 0;
#X connect 5 0 1 0;
#X connect 5 1 8 0;
#X connect 6 0 12 0;
#X connect 7 0 6 0;
#X connect 8 0 4 0;
#X connect 9 0 5 0;
#X connect 10 0 0 0;
#X connect 11 0 4 1;
#X connect 14 0 15 0;
#X connect 15 0 4 1;
