#N canvas 259 228 613 428 10;
#X obj 34 55 unpack f f f f f f f;
#X obj 21 292 outlet~;
#X text 83 10 midi note data (from osc);
#X obj 34 10 inlet;
#X obj 212 34 inlet;
#X obj 231 57 inlet;
#X text 253 33 control messages for osc;
#X text 272 57 control messages for adsr;
#X obj 150 84 instrument-1~;
#X obj 131 108 instrument-1~;
#X obj 111 130 instrument-1~;
#X obj 91 154 instrument-1~;
#X obj 72 181 instrument-1~;
#X obj 52 204 instrument-1~;
#X obj 34 228 instrument-1~;
#X connect 0 0 14 0;
#X connect 0 1 13 0;
#X connect 0 2 12 0;
#X connect 0 3 11 0;
#X connect 0 4 10 0;
#X connect 0 5 9 0;
#X connect 0 6 8 0;
#X connect 3 0 0 0;
#X connect 4 0 8 1;
#X connect 4 0 9 1;
#X connect 4 0 10 1;
#X connect 4 0 11 1;
#X connect 4 0 12 1;
#X connect 4 0 13 1;
#X connect 4 0 14 1;
#X connect 5 0 8 2;
#X connect 5 0 9 2;
#X connect 5 0 10 2;
#X connect 5 0 11 2;
#X connect 5 0 12 2;
#X connect 5 0 13 2;
#X connect 5 0 14 2;
#X connect 8 0 1 0;
#X connect 9 0 1 0;
#X connect 10 0 1 0;
#X connect 11 0 1 0;
#X connect 12 0 1 0;
#X connect 13 0 1 0;
#X connect 14 0 1 0;
