#N canvas 840 22 840 1002 10;
#X declare -lib mrpeach;
#X obj 17 29 nc_osc_receive;
#X obj 17 72 osc_route_params;
#X text 25 50 global values;
#X obj 125 29 osc_route_matches;
#X text 247 29 /count /words /chars /notes /key;
#X obj 125 72 osc_route_params;
#X obj 238 72 osc_route_params;
#X obj 346 72 osc_route_params;
#X text 133 54 0/;
#X text 239 54 1/;
#X text 348 55 2/;
#X text 457 55 3/;
#X obj 16 8 tgl 15 0 empty empty empty 17 7 0 10 -262144 -1 -1 0 1
;
#X text 35 5 enable/disable osc debug output;
#X obj 456 72 osc_route_params;
#X obj 566 72 osc_route_params;
#X text 566 56 4/;
#X obj 694 578 dac~;
#X obj 679 72 adc~;
#X text 678 39 audio input;
#X text 687 600 output;
#X obj 694 538 nc_limiter~;
#X obj 689 163 vsl 15 128 0 1 0 0 empty empty empty 0 -9 0 10 -262144
-1 -1 1500 1;
#X obj 113 294 *~;
#X obj 113 246 nc_mono_synth~;
#X obj 113 201 unpack f f f f f f;
#X msg 689 129 0.1;
#X msg 0 201 1 90 \, 0 100 10;
#X obj 395 246 nc_mono_synth~;
#X obj 207 246 nc_mono_synth~;
#X obj 301 246 nc_mono_synth~;
#X obj 584 246 nc_mono_synth~;
#X obj 490 246 nc_mono_synth~;
#X connect 0 0 1 0;
#X connect 0 0 3 0;
#X connect 3 0 5 0;
#X connect 3 1 6 0;
#X connect 3 2 7 0;
#X connect 3 3 14 0;
#X connect 3 4 15 0;
#X connect 5 3 25 0;
#X connect 12 0 0 0;
#X connect 21 0 17 0;
#X connect 21 0 17 1;
#X connect 22 0 23 1;
#X connect 23 0 21 0;
#X connect 24 0 23 0;
#X connect 25 0 24 0;
#X connect 25 1 29 0;
#X connect 25 2 30 0;
#X connect 25 3 28 0;
#X connect 25 4 32 0;
#X connect 25 5 31 0;
#X connect 26 0 22 0;
#X connect 27 0 24 1;
#X connect 28 0 23 0;
#X connect 29 0 23 0;
#X connect 30 0 23 0;
#X connect 31 0 23 0;
#X connect 32 0 23 0;
