#N canvas 840 22 840 1002 10;
#X declare -lib mrpeach;
#X obj 17 29 nc_osc_receive;
#X obj 17 72 osc_route_params;
#X text 25 50 global values;
#X obj 125 29 osc_route_matches;
#X text 247 29 /count /words /chars /notes /key;
#X obj 125 72 osc_route_params;
#X obj 238 72 osc_route_params;
#X obj 346 72 osc_route_params;
#X text 136 54 0/;
#X text 239 54 1/;
#X text 348 55 2/;
#X text 457 55 3/;
#X obj 16 8 tgl 15 0 empty empty empty 17 7 0 10 -262144 -1 -1 0 1
;
#X text 35 5 enable/disable osc debug output;
#X obj 456 72 osc_route_params;
#X obj 566 72 osc_route_params;
#X text 566 56 4/;
#X obj 679 72 adc~;
#X obj 489 664 nc_dac~;
#X text 678 39 audio input;
#X obj 194 269 nc_basic_chorus~;
#X obj 287 221 vsl 10 40 0 1 0 0 empty empty empty 0 -9 0 10 -262144
-1 -1 1950 1;
#X obj 193 344 nc_simple_delay~;
#X obj 329 168 print BANG;
#X obj 329 204 t b;
#X obj 329 233 f 0.5;
#X obj 61 176 map 0 10 0 1000;
#X obj 59 257 map 0 10 0 0.5;
#X msg 250 187 0.5;
#X obj 250 161 loadbang;
#X connect 0 0 1 0;
#X connect 0 0 3 0;
#X connect 3 0 5 0;
#X connect 3 1 6 0;
#X connect 3 2 7 0;
#X connect 3 3 14 0;
#X connect 3 4 15 0;
#X connect 5 2 26 0;
#X connect 5 2 27 0;
#X connect 5 3 20 0;
#X connect 6 0 23 0;
#X connect 6 0 24 0;
#X connect 12 0 0 0;
#X connect 17 0 22 0;
#X connect 20 0 22 0;
#X connect 21 0 20 1;
#X connect 22 0 18 0;
#X connect 24 0 25 0;
#X connect 25 0 22 3;
#X connect 26 0 22 1;
#X connect 27 0 22 3;
#X connect 28 0 21 0;
#X connect 29 0 28 0;
