#N canvas 840 22 840 1002 10;
#X declare -lib mrpeach;
#X obj 17 72 osc_route_params;
#X text 25 50 global values;
#X obj 125 29 osc_route_matches;
#X text 247 29 /count /words /chars /notes /key;
#X obj 125 72 osc_route_params;
#X obj 238 72 osc_route_params;
#X obj 346 72 osc_route_params;
#X text 133 54 0/;
#X text 239 54 1/;
#X text 348 55 2/;
#X text 457 55 3/;
#X obj 16 8 tgl 15 0 empty empty empty 17 7 0 10 -262144 -1 -1 1 1
;
#X text 35 5 enable/disable osc debug output;
#X obj 456 72 osc_route_params;
#X obj 566 72 osc_route_params;
#X text 566 56 4/;
#X obj 694 578 dac~;
#X obj 679 72 adc~;
#X text 678 39 audio input;
#X text 687 600 output;
#X obj 694 538 nc_limiter~;
#X obj 772 177 vsl 15 128 0 1 0 0 empty empty empty 0 -9 0 10 -262144
-1 -1 1400 1;
#X obj 194 297 *~;
#X obj 194 204 unpack f f f f f f;
#X msg 770 132 0.1;
#X obj 194 249 nc_mono_synth~;
#X msg 0 201 1 90;
#X obj 0 162 bng 15 250 50 0 empty empty empty 17 7 0 10 -262144 -1
-1;
#X obj 0 236 s noteOnCurve;
#X obj 1 261 s noteOffCurve;
#X msg 36 201 0 \$1 100;
#X obj 85 136 map 0 10 100 5000;
#X obj 17 29 nc_osc_receive;
#X obj 288 249 nc_mono_synth~;
#X obj 476 249 nc_mono_synth~;
#X obj 382 249 nc_mono_synth~;
#X obj 665 249 nc_mono_synth~;
#X obj 571 249 nc_mono_synth~;
#X connect 2 0 4 0;
#X connect 2 1 5 0;
#X connect 2 2 6 0;
#X connect 2 3 13 0;
#X connect 2 4 14 0;
#X connect 4 2 31 0;
#X connect 4 3 23 0;
#X connect 11 0 32 0;
#X connect 20 0 16 0;
#X connect 20 0 16 1;
#X connect 21 0 22 1;
#X connect 22 0 20 0;
#X connect 23 0 25 0;
#X connect 23 1 33 0;
#X connect 23 2 35 0;
#X connect 23 3 34 0;
#X connect 23 4 37 0;
#X connect 23 5 36 0;
#X connect 24 0 21 0;
#X connect 25 0 22 0;
#X connect 26 0 28 0;
#X connect 27 0 26 0;
#X connect 27 0 30 0;
#X connect 30 0 29 0;
#X connect 31 0 30 0;
#X connect 32 0 0 0;
#X connect 32 0 2 0;
#X connect 33 0 22 0;
#X connect 34 0 22 0;
#X connect 35 0 22 0;
#X connect 36 0 22 0;
#X connect 37 0 22 0;
