#N canvas 840 22 840 1002 10;
#X declare -lib mrpeach;
#X obj 17 29 nc_osc_receive;
#X obj 17 72 osc_route_params;
#X text 25 50 global values;
#X obj 125 29 osc_route_matches;
#X text 247 29 /count /words /chars /notes /key;
#X obj 125 72 osc_route_params;
#X obj 238 72 osc_route_params;
#X obj 346 72 osc_route_params;
#X text 136 54 0/;
#X text 239 54 1/;
#X text 348 55 2/;
#X text 457 55 3/;
#X obj 16 8 tgl 15 0 empty empty empty 17 7 0 10 -262144 -1 -1 1 1
;
#X text 35 5 enable/disable osc debug output;
#X obj 456 72 osc_route_params;
#X obj 566 72 osc_route_params;
#X text 566 56 4/;
#X obj 679 72 adc~;
#X text 678 39 audio input;
#X obj 14 414 nc_simple_delay~;
#X obj 358 284 pitchshift~;
#X obj 125 131 tgl 15 0 empty empty empty 17 7 0 10 -262144 -1 -1 0
1;
#X obj 125 196 spigot~;
#X msg 311 130 trans \$1;
#X obj 279 113 * -1;
#X msg 549 190 win \$1;
#X obj 445 156 t b;
#X obj 473 173 random 1000;
#X obj 125 104 t b;
#X msg 157 121 win 1;
#X msg 296 337 0.5;
#X obj 296 311 t b;
#X msg 60 121 0;
#X msg 207 121 trans 0;
#X obj 652 163 print;
#X obj 612 118 map 1 20 1 1000;
#X obj 445 105 % 2;
#X obj 445 130 sel 0 1;
#X obj 238 96 * 5;
#X obj 298 471 delay_fbf~;
#X obj 626 203 map 1 10 0 1;
#X obj 580 634 print delay_fbf;
#X obj 166 711 mix5++;
#X obj 166 934 dac~;
#X obj 310 376 t b;
#X msg 310 399 1;
#X obj 244 450 spigot~;
#X obj 77 149 s reset;
#X msg 267 424 0;
#X obj 250 398 r reset;
#X obj 594 540 instrument-1~;
#X obj 594 486 sel 1 5;
#X obj 615 429 r reset;
#X obj 594 455 once;
#N canvas 1347 759 450 300 money_chime 1;
#X obj 92 21 inlet;
#X obj 92 59 tgl 15 0 empty empty empty 17 7 0 10 -262144 -1 -1 0 1
;
#X obj 92 125 float;
#X floatatom 143 60 5 0 0 0 - - -;
#X obj 144 124 + 1;
#X floatatom 92 154 5 0 0 0 - - -;
#X obj 92 204 hradio 15 1 0 8 empty empty empty 0 -8 0 10 -262144 -1
-1 5;
#X msg 92 296 53;
#X msg 135 296 56;
#X msg 178 295 60;
#X obj 92 328 outlet;
#X msg 390 294 0;
#X obj 92 174 % 8;
#X obj 92 221 sel 0 1 2 3 4 5 6 7;
#X msg 216 294 64;
#X msg 259 294 65;
#X msg 302 293 72;
#X obj 92 93 metro 100;
#X msg 340 295 77;
#X connect 0 0 1 0;
#X connect 1 0 17 0;
#X connect 2 0 4 0;
#X connect 2 0 5 0;
#X connect 3 0 17 1;
#X connect 4 0 2 1;
#X connect 5 0 12 0;
#X connect 6 0 13 0;
#X connect 7 0 10 0;
#X connect 8 0 10 0;
#X connect 9 0 10 0;
#X connect 11 0 1 0;
#X connect 12 0 6 0;
#X connect 13 0 7 0;
#X connect 13 1 8 0;
#X connect 13 2 9 0;
#X connect 13 3 14 0;
#X connect 13 4 15 0;
#X connect 13 5 16 0;
#X connect 13 6 18 0;
#X connect 14 0 10 0;
#X connect 15 0 10 0;
#X connect 16 0 10 0;
#X connect 17 0 2 0;
#X connect 18 0 10 0;
#X restore 594 511 pd money_chime;
#X obj 690 540 print money;
#X obj 282 854 freeverber~;
#X msg 365 416 delpitch 53;
#X connect 0 0 1 0;
#X connect 0 0 3 0;
#X connect 3 0 5 0;
#X connect 3 1 6 0;
#X connect 3 2 7 0;
#X connect 3 3 14 0;
#X connect 3 4 15 0;
#X connect 5 0 28 0;
#X connect 6 0 38 0;
#X connect 6 0 44 0;
#X connect 6 0 53 0;
#X connect 6 0 57 0;
#X connect 7 0 36 0;
#X connect 12 0 0 0;
#X connect 14 0 31 0;
#X connect 15 2 35 0;
#X connect 15 2 40 0;
#X connect 17 0 22 0;
#X connect 19 0 42 1;
#X connect 20 0 19 0;
#X connect 21 0 22 1;
#X connect 21 0 46 1;
#X connect 22 0 20 0;
#X connect 22 0 46 0;
#X connect 23 0 20 1;
#X connect 24 0 23 0;
#X connect 25 0 20 1;
#X connect 26 0 27 0;
#X connect 27 0 25 0;
#X connect 28 0 21 0;
#X connect 28 0 29 0;
#X connect 28 0 32 0;
#X connect 28 0 33 0;
#X connect 28 0 47 0;
#X connect 29 0 20 1;
#X connect 30 0 19 3;
#X connect 31 0 30 0;
#X connect 32 0 19 3;
#X connect 33 0 20 1;
#X connect 35 0 19 1;
#X connect 35 0 34 0;
#X connect 36 0 37 0;
#X connect 37 0 29 0;
#X connect 37 1 26 0;
#X connect 38 0 24 0;
#X connect 39 0 42 0;
#X connect 39 1 41 0;
#X connect 40 0 19 2;
#X connect 42 0 43 0;
#X connect 42 1 43 1;
#X connect 42 2 56 0;
#X connect 44 0 45 0;
#X connect 45 0 46 1;
#X connect 46 0 42 0;
#X connect 46 1 39 0;
#X connect 48 0 46 1;
#X connect 49 0 48 0;
#X connect 50 0 42 2;
#X connect 51 0 54 0;
#X connect 51 1 54 0;
#X connect 52 0 53 1;
#X connect 53 0 51 0;
#X connect 54 0 50 0;
#X connect 54 0 55 0;
#X connect 56 0 43 0;
#X connect 56 1 43 1;
#X connect 57 0 39 1;
