#N canvas 0 22 960 1152 10;
#X declare -lib mrpeach;
#X obj 17 29 nc_osc_receive;
#X obj 17 72 osc_route_params;
#X text 25 50 global values;
#X obj 125 29 osc_route_matches;
#X text 247 29 /count /words /chars /notes /key;
#X obj 125 72 osc_route_params;
#X obj 238 72 osc_route_params;
#X obj 346 72 osc_route_params;
#X text 136 54 0/;
#X text 239 54 1/;
#X text 348 55 2/;
#X text 457 55 3/;
#X obj 16 8 tgl 15 0 empty empty empty 17 7 0 10 -262144 -1 -1 0 1
;
#X text 35 5 enable/disable osc debug output;
#X obj 456 72 osc_route_params;
#X obj 566 72 osc_route_params;
#X text 566 56 4/;
#X obj 679 72 adc~;
#X text 678 39 audio input;
#X msg 549 190 win \$1;
#X obj 445 156 t b;
#X obj 473 173 random 1000;
#X obj 125 92 t b;
#X obj 445 105 % 2;
#X obj 445 130 sel 0 1;
#X obj 530 444 mix5++;
#X obj 441 1108 dac~;
#X obj 125 112 s reset;
#X obj 757 401 instrument-1~;
#X obj 778 290 r reset;
#X obj 757 316 once;
#N canvas 960 22 960 1152 money_chime 1;
#X obj 91 -59 inlet;
#X obj 92 59 tgl 15 0 empty empty empty 17 7 0 10 -262144 -1 -1 0 46
;
#X obj 92 125 float;
#X floatatom 143 60 5 0 0 0 - - -;
#X obj 144 124 + 1;
#X floatatom 92 154 5 0 0 0 - - -;
#X obj 92 204 hradio 15 1 0 8 empty empty empty 0 -8 0 10 -262144 -1
-1 7;
#X obj 92 375 outlet;
#X msg 251 238 0;
#X obj 92 174 % 8;
#X obj 92 221 sel 0 1 2 3 4 5 6 7;
#X floatatom 92 332 5 0 0 0 - - -;
#X floatatom 132 332 5 0 0 0 - - -;
#X floatatom 172 332 5 0 0 0 - - -;
#X floatatom 212 332 5 0 0 0 - - -;
#X floatatom 252 332 5 0 0 0 - - -;
#X floatatom 292 332 5 0 0 0 - - -;
#X floatatom 332 332 5 0 0 0 - - -;
#X obj 387 246 unpack f f f f f f f;
#X obj 371 -42 float;
#X obj 423 -43 + 1;
#X floatatom 371 -13 5 0 0 0 - - -;
#X obj 371 37 hradio 15 1 0 8 empty empty empty 0 -8 0 10 -262144 -1
-1 3;
#X obj 371 57 sel 0 1 2 3 4 5 6 7;
#X msg 383 187 list 53 57 60 65 69 72 77;
#X msg 398 165 list 50 53 57 64 65 69 74;
#X msg 415 143 list 55 58 62 69 70 74 81;
#X msg 432 121 list 45 49 52 56 57 64 73;
#X obj 92 93 metro 75;
#X obj 371 7 % 4;
#X connect 0 0 1 0;
#X connect 0 0 19 0;
#X connect 1 0 28 0;
#X connect 2 0 4 0;
#X connect 2 0 5 0;
#X connect 3 0 28 1;
#X connect 4 0 2 1;
#X connect 5 0 9 0;
#X connect 6 0 10 0;
#X connect 8 0 1 0;
#X connect 9 0 6 0;
#X connect 10 0 11 0;
#X connect 10 1 12 0;
#X connect 10 2 13 0;
#X connect 10 3 14 0;
#X connect 10 4 15 0;
#X connect 10 5 16 0;
#X connect 10 6 17 0;
#X connect 10 7 8 0;
#X connect 11 0 7 0;
#X connect 12 0 7 0;
#X connect 13 0 7 0;
#X connect 14 0 7 0;
#X connect 15 0 7 0;
#X connect 16 0 7 0;
#X connect 17 0 7 0;
#X connect 18 0 11 0;
#X connect 18 1 12 0;
#X connect 18 2 13 0;
#X connect 18 3 14 0;
#X connect 18 4 15 0;
#X connect 18 5 16 0;
#X connect 18 6 17 0;
#X connect 19 0 20 0;
#X connect 19 0 21 0;
#X connect 20 0 19 1;
#X connect 21 0 29 0;
#X connect 22 0 23 0;
#X connect 23 0 24 0;
#X connect 23 1 25 0;
#X connect 23 2 26 0;
#X connect 23 3 27 0;
#X connect 24 0 18 0;
#X connect 25 0 18 0;
#X connect 26 0 18 0;
#X connect 27 0 18 0;
#X connect 28 0 2 0;
#X connect 29 0 22 0;
#X restore 757 372 pd money_chime;
#X obj 532 818 freeverber~;
#X obj 163 462 pitchshift~;
#X obj 238 92 s money;
#X obj 726 290 r money;
#X obj 718 108 r reset;
#X obj 679 154 spigot~;
#X obj 718 134 tgl 15 0 empty empty empty 17 7 0 10 -262144 -1 -1 0
1;
#X obj 346 97 s notmoney;
#X obj 467 207 r notmoney;
#X msg 467 233 on 1;
#X msg 219 250 win \$1;
#X obj 219 124 r notmoney;
#X obj 219 220 line 0 10;
#X obj 219 168 random 5000;
#X obj 219 144 t b;
#X obj 307 168 delay 250;
#X obj 152 169 delay 250;
#X msg 64 265 trans \$1;
#X obj 64 191 * -1;
#X msg 150 194 0 100;
#X obj 504 95 t b;
#X obj 504 115 s reset;
#X obj 120 638 delay_fbf~;
#X obj 532 952 mix5++;
#X msg 803 533 balance \$1;
#X obj 735 905 print;
#X msg 398 631 mix \$1;
#X obj 803 487 r notmoneycount;
#X obj 398 581 r notmoneycount;
#N canvas 2031 538 222 107 notmoneycount 0;
#X obj 36 -1168 r notmoney;
#X floatatom 71 -1134 5 0 0 0 - - -;
#X obj 36 -1135 +;
#X obj 118 -1167 r reset;
#X msg 118 -1143 0;
#X obj 37 -1104 s notmoneycount;
#X connect 0 0 2 0;
#X connect 1 0 2 1;
#X connect 1 0 5 0;
#X connect 2 0 1 0;
#X connect 3 0 4 0;
#X connect 4 0 1 0;
#X restore 880 400 pd notmoneycount;
#X msg 883 535 roomsize \$1;
#X msg 218 191 \$1 2500;
#X msg 305 193 0 2500;
#X obj 44 167 r notmoneycount;
#X obj 67 368 print;
#X msg 37 539 fb \$1;
#N canvas 1372 750 450 300 distortion 0;
#X obj 83 19 inlet~;
#X obj 105 119 outlet~;
#X obj 109 89 clip~ -0.5 0.5;
#X obj 108 60 *~ 20;
#X obj 172 20 inlet;
#X connect 0 0 3 0;
#X connect 2 0 1 0;
#X connect 3 0 2 0;
#X connect 4 0 3 1;
#X restore 602 327 pd distortion;
#X obj 65 108 bng 15 250 50 0 empty empty empty 17 7 0 10 -262144 -1
-1;
#X obj 627 703 r notmoney;
#X msg 627 729 on 1;
#X obj 764 727 r reset;
#X msg 765 752 roomsize 0;
#X msg 838 753 balance 0;
#N canvas 1174 616 450 300 mixonesetup 0;
#X obj -401 -529 loadbang;
#X obj -398 -414 outlet;
#X msg -212 -486 a1a1 1;
#X msg -151 -486 a2a1 1;
#X msg -400 -488 v1 90;
#X msg -283 -487 send1 90;
#X msg -89 -486 limit 1;
#X obj -308 -523 bng 15 250 50 0 empty empty empty 17 7 0 10 -262144
-1 -1;
#X msg -340 -484 v2 90;
#X connect 0 0 4 0;
#X connect 0 0 8 0;
#X connect 0 0 5 0;
#X connect 0 0 2 0;
#X connect 0 0 3 0;
#X connect 0 0 6 0;
#X connect 2 0 1 0;
#X connect 3 0 1 0;
#X connect 4 0 1 0;
#X connect 5 0 1 0;
#X connect 6 0 1 0;
#X connect 7 0 0 0;
#X connect 8 0 1 0;
#X restore 809 423 pd mixonesetup;
#X msg 819 450 enable 1;
#N canvas 0 22 405 170 mixtwosetup 0;
#X obj -401 -529 loadbang;
#X obj -398 -414 outlet;
#X msg -350 -487 limit 1;
#X msg -400 -488 v1 95;
#X connect 0 0 3 0;
#X connect 0 0 2 0;
#X connect 2 0 1 0;
#X connect 3 0 1 0;
#X restore 790 920 pd mixtwosetup;
#X obj 329 873 print;
#X obj 409 673 loadbang;
#X msg 409 699 delcoarse 925;
#X obj 34 490 map 1 150 0 75;
#X obj 398 606 map 1 75 0 100;
#X obj 803 511 map 1 75 0 1;
#X obj 693 252 map 1 80 1 40;
#X obj 798 340 bng 15 250 50 0 empty empty empty 17 7 0 10 -262144
-1 -1;
#X connect 0 0 1 0;
#X connect 0 0 3 0;
#X connect 1 1 66 0;
#X connect 1 1 81 0;
#X connect 1 1 84 0;
#X connect 3 0 5 0;
#X connect 3 1 6 0;
#X connect 3 2 7 0;
#X connect 3 3 14 0;
#X connect 3 4 15 0;
#X connect 5 0 22 0;
#X connect 6 0 34 0;
#X connect 7 0 23 0;
#X connect 7 0 39 0;
#X connect 12 0 0 0;
#X connect 14 0 52 0;
#X connect 17 0 37 0;
#X connect 20 0 21 0;
#X connect 21 0 19 0;
#X connect 22 0 27 0;
#X connect 23 0 24 0;
#X connect 24 1 20 0;
#X connect 25 0 26 0;
#X connect 25 0 26 1;
#X connect 25 2 33 0;
#X connect 28 0 25 1;
#X connect 29 0 30 1;
#X connect 30 0 31 0;
#X connect 31 0 28 0;
#X connect 32 0 55 0;
#X connect 32 2 57 0;
#X connect 33 0 54 0;
#X connect 35 0 30 0;
#X connect 36 0 38 0;
#X connect 37 1 68 0;
#X connect 38 0 37 1;
#X connect 40 0 41 0;
#X connect 41 0 33 1;
#X connect 42 0 33 1;
#X connect 43 0 46 0;
#X connect 44 0 42 0;
#X connect 45 0 63 0;
#X connect 46 0 45 0;
#X connect 46 0 47 0;
#X connect 46 0 48 0;
#X connect 47 0 64 0;
#X connect 48 0 51 0;
#X connect 49 0 33 1;
#X connect 50 0 49 0;
#X connect 52 0 53 0;
#X connect 54 0 32 0;
#X connect 54 1 78 0;
#X connect 55 0 26 0;
#X connect 55 0 26 1;
#X connect 56 0 32 2;
#X connect 58 0 54 1;
#X connect 59 0 83 0;
#X connect 60 0 82 0;
#X connect 62 0 32 2;
#X connect 63 0 44 0;
#X connect 64 0 44 0;
#X connect 65 0 50 0;
#X connect 67 0 54 1;
#X connect 68 0 25 0;
#X connect 69 0 27 0;
#X connect 70 0 71 0;
#X connect 71 0 32 2;
#X connect 72 0 73 0;
#X connect 72 0 74 0;
#X connect 73 0 32 2;
#X connect 74 0 32 2;
#X connect 75 0 25 5;
#X connect 76 0 25 5;
#X connect 77 0 55 5;
#X connect 79 0 80 0;
#X connect 80 0 54 1;
#X connect 81 0 67 0;
#X connect 82 0 58 0;
#X connect 83 0 56 0;
#X connect 83 0 62 0;
#X connect 84 0 68 1;
#X connect 85 0 31 0;
