#N canvas 840 22 840 1002 10;
#X declare -lib mrpeach;
#X obj 17 29 nc_osc_receive;
#X obj 17 72 osc_route_params;
#X text 25 50 global values;
#X obj 125 29 osc_route_matches;
#X text 247 29 /count /words /chars /notes /key;
#X obj 125 72 osc_route_params;
#X obj 238 72 osc_route_params;
#X obj 346 72 osc_route_params;
#X text 136 54 0/;
#X text 239 54 1/;
#X text 348 55 2/;
#X text 457 55 3/;
#X obj 16 8 tgl 15 0 empty empty empty 17 7 0 10 -262144 -1 -1 0 1
;
#X text 35 5 enable/disable osc debug output;
#X obj 456 72 osc_route_params;
#X obj 566 72 osc_route_params;
#X text 566 56 4/;
#X obj 679 72 adc~;
#X obj 489 659 nc_dac~;
#X text 678 39 audio input;
#X obj 153 409 nc_simple_delay~;
#X obj 364 305 pitchshift~;
#X obj 125 131 tgl 15 0 empty empty empty 17 7 0 10 -262144 -1 -1 0
1;
#X obj 125 158 spigot~;
#X msg 311 130 trans \$1;
#X obj 279 113 * -1;
#X msg 549 190 win \$1;
#X obj 445 156 t b;
#X obj 473 173 random 1000;
#X obj 125 104 t b;
#X msg 157 121 win 1;
#X msg 296 337 0.5;
#X obj 296 311 t b;
#X msg 60 121 0;
#X msg 207 121 trans 0;
#X obj 652 163 print;
#X obj 612 118 map 1 20 1 1000;
#X obj 445 105 % 2;
#X obj 445 130 sel 0 1;
#X obj 238 96 * 5;
#X connect 0 0 1 0;
#X connect 0 0 3 0;
#X connect 3 0 5 0;
#X connect 3 1 6 0;
#X connect 3 2 7 0;
#X connect 3 3 14 0;
#X connect 3 4 15 0;
#X connect 5 0 29 0;
#X connect 6 0 39 0;
#X connect 7 0 37 0;
#X connect 12 0 0 0;
#X connect 14 0 32 0;
#X connect 15 2 36 0;
#X connect 17 0 23 0;
#X connect 20 0 18 0;
#X connect 21 0 20 0;
#X connect 22 0 23 1;
#X connect 23 1 21 0;
#X connect 24 0 21 1;
#X connect 25 0 24 0;
#X connect 26 0 21 1;
#X connect 27 0 28 0;
#X connect 28 0 26 0;
#X connect 29 0 22 0;
#X connect 29 0 30 0;
#X connect 29 0 33 0;
#X connect 29 0 34 0;
#X connect 30 0 21 1;
#X connect 31 0 20 3;
#X connect 32 0 31 0;
#X connect 33 0 20 3;
#X connect 34 0 21 1;
#X connect 36 0 20 1;
#X connect 36 0 35 0;
#X connect 37 0 38 0;
#X connect 38 0 30 0;
#X connect 38 1 27 0;
#X connect 39 0 25 0;
