#N canvas 840 22 840 490 10;
#X declare -lib mrpeach;
#X obj 87 -122 nc_osc_receive;
#X obj 652 3 routeOSC /notes;
#X obj -1 2 routeOSC /key;
#X obj 551 3 routeOSC /count;
#X obj 871 2 routeOSC /mute;
#X obj -1 32 t b;
#X obj 87 2 routeOSC /words;
#X obj 188 2 routeOSC /chars;
#X obj -1 102 outlet;
#X obj 87 101 outlet;
#X obj 188 98 outlet;
#X obj 551 96 outlet;
#X obj 652 92 outlet;
#X obj 870 91 outlet;
#X obj 755 92 outlet;
#X obj 755 3 routeOSC /notes/0;
#X obj 21 -98 print;
#X obj 289 98 outlet;
#X obj 289 2 routeOSC /chars/0;
#X obj 403 98 outlet;
#X obj 403 2 routeOSC /chars/1;
#X connect 0 0 1 0;
#X connect 0 0 2 0;
#X connect 0 0 3 0;
#X connect 0 0 4 0;
#X connect 0 0 6 0;
#X connect 0 0 7 0;
#X connect 0 0 15 0;
#X connect 0 0 16 0;
#X connect 0 0 18 0;
#X connect 0 0 20 0;
#X connect 1 0 12 0;
#X connect 2 0 5 0;
#X connect 3 0 11 0;
#X connect 4 0 13 0;
#X connect 5 0 8 0;
#X connect 6 0 9 0;
#X connect 7 0 10 0;
#X connect 15 0 14 0;
#X connect 18 0 17 0;
#X connect 20 0 19 0;
