#N canvas 499 22 644 529 10;
#X obj 58 92 soundfiler;
#X floatatom 77 115 10 0 0 0 - - -;
#N canvas 0 22 450 278 (subpatch) 0;
#X array channelL 58321 float 2;
#X coords 0 1 58321 -1 200 140 1;
#X restore 296 27 graph;
#N canvas 0 22 450 278 (subpatch) 0;
#X array channelR 58321 float 2;
#X coords 0 1 58321 -1 200 140 1;
#X restore 296 193 graph;
#X msg 58 65 read -resize \$1 channelL channelR;
#X obj 77 134 s sampleSize;
#X floatatom 86 217 5 0 0 0 - - -;
#X obj 94 401 tabread4~ channelL;
#X obj -34 401 tabread4~ channelR;
#X obj 6 367 line~;
#X obj -30 89 inlet;
#X obj -31 480 outlet~;
#X obj 22 480 outlet~;
#X obj 6 260 r sampleSize;
#X obj 6 301 pack f f;
#X obj 86 237 s duration;
#X obj 85 280 r duration;
#X obj 54 367 print;
#X obj 58 -111 loadbang;
#X obj 73 15 print ARG;
#X obj 58 -17 makefilename %s;
#X obj 58 -65 symbol \$1;
#X msg 58 39 open \$1;
#X msg 6 333 0 \, \$1 \$2;
#X obj 57 188 expr ($f2 / $f1) * 1000;
#X obj 146 -66 float \$2;
#X obj 146 -41 s sampleRate;
#X obj 77 163 r sampleRate;
#X obj 139 -112 inlet;
#X obj 192 -112 inlet;
#X obj 234 -40 print SR;
#X obj -29 172 t b b;
#X connect 0 0 1 0;
#X connect 0 0 24 0;
#X connect 1 0 5 0;
#X connect 4 0 0 0;
#X connect 6 0 15 0;
#X connect 7 0 12 0;
#X connect 8 0 11 0;
#X connect 9 0 7 0;
#X connect 9 0 8 0;
#X connect 10 0 31 0;
#X connect 13 0 14 0;
#X connect 14 0 23 0;
#X connect 16 0 14 1;
#X connect 18 0 21 0;
#X connect 18 0 25 0;
#X connect 20 0 22 0;
#X connect 20 0 19 0;
#X connect 21 0 20 0;
#X connect 22 0 4 0;
#X connect 23 0 9 0;
#X connect 23 0 17 0;
#X connect 24 0 6 0;
#X connect 25 0 26 0;
#X connect 25 0 30 0;
#X connect 27 0 24 0;
#X connect 28 0 21 0;
#X connect 29 0 25 0;
#X connect 31 0 14 0;
