#N canvas 837 81 644 529 10;
#X msg 58 36 open test.wav;
#X obj 58 128 soundfiler;
#X floatatom 88 165 10 0 0 0 - - -;
#X obj 58 205 expr 44100 / $f1;
#N canvas 0 22 450 278 (subpatch) 0;
#X array channelL 58321 float 2;
#X coords 0 1 58321 -1 200 140 1;
#X restore 296 27 graph;
#N canvas 0 22 450 278 (subpatch) 0;
#X array channelR 58321 float 2;
#X coords 0 1 58321 -1 200 140 1;
#X restore 296 193 graph;
#X msg 58 69 read -resize \$1 channelL channelR;
#X obj 88 184 s sampleSize;
#X obj 58 255 phasor~;
#X floatatom 87 234 5 0 0 0 - - -;
#X obj 59 306 *~;
#X obj 75 284 r sampleSize;
#X obj 59 351 tabread4~ channelL;
#X obj 31 379 tabread4~ channelR;
#X obj 33 423 *~;
#X obj 73 423 *~;
#X obj 156 374 vsl 15 128 0 1 0 0 empty empty empty 0 -9 0 10 -262144
-1 -1 9900 1;
#X obj 33 463 dac~;
#X obj 174 263 metro 50;
#X obj 173 293 snapshot~;
#X floatatom 172 317 5 0 0 0 - - -;
#X obj 174 243 tgl 15 0 empty empty empty 17 7 0 10 -262144 -1 -1 1
1;
#X msg 10 165 0;
#X obj 8 114 bng 15 250 50 0 empty empty empty 17 7 0 10 -262144 -1
-1;
#X obj 8 134 t b b;
#X msg 2 214 1;
#X obj -41 296 line~;
#X msg -41 266 0 \, 58321 1500;
#X connect 0 0 6 0;
#X connect 1 0 2 0;
#X connect 1 0 3 0;
#X connect 2 0 7 0;
#X connect 3 0 8 0;
#X connect 3 0 9 0;
#X connect 6 0 1 0;
#X connect 8 0 10 0;
#X connect 8 0 19 0;
#X connect 10 0 12 0;
#X connect 10 0 13 0;
#X connect 11 0 10 1;
#X connect 13 0 14 0;
#X connect 13 0 15 0;
#X connect 14 0 17 0;
#X connect 15 0 17 1;
#X connect 16 0 15 1;
#X connect 16 0 14 1;
#X connect 18 0 19 0;
#X connect 19 0 20 0;
#X connect 21 0 18 0;
#X connect 22 0 8 0;
#X connect 22 0 8 1;
#X connect 23 0 24 0;
#X connect 24 0 22 0;
#X connect 24 1 22 0;
#X connect 25 0 8 0;
#X connect 26 0 12 0;
#X connect 26 0 13 0;
#X connect 27 0 26 0;
